<svg width="134" height="139" viewBox="0 0 134 139" fill="none" xmlns="http://www.w3.org/2000/svg">
<path d="M133.996 69.4648C133.996 104.171 108.939 132.863 76.3912 137.52C73.3468 137.955 70.233 138.181 67.073 138.181C63.4236 138.181 59.8435 137.88 56.3521 137.302C24.4898 132.036 0.149963 103.665 0.149963 69.4608C0.149963 31.5099 30.1123 0.74472 67.073 0.74472C104.034 0.74472 133.996 31.5099 133.996 69.4608V69.4648Z" fill="#007EBB"/>
<path d="M32.7136 46.2574C30.9293 44.5559 30.0391 42.4508 30.0391 39.9461C30.0391 37.4413 30.9293 35.2412 32.7136 33.5398C34.4978 31.8383 36.7946 30.9875 39.6116 30.9875C42.4287 30.9875 44.633 31.8383 46.4134 33.5398C48.1977 35.2412 49.0879 37.378 49.0879 39.9461C49.0879 42.5141 48.1977 44.5559 46.4134 46.2574C44.6291 47.9588 42.3632 48.8096 39.6116 48.8096C36.8601 48.8096 34.4978 47.9588 32.7136 46.2574ZM47.5849 56.0152V108.156H31.542V56.0152H47.5849Z" fill="#FEFFFC"/>
<path d="M101.001 61.1631C104.496 65.0607 106.246 70.4144 106.246 77.2283V107.238H91.0044V79.3452C91.0044 75.9106 90.1373 73.2397 88.4031 71.3364C86.669 69.4331 84.3375 68.4835 81.4087 68.4835C78.4799 68.4835 76.1485 69.4371 74.4143 71.3364C72.6801 73.2397 71.8131 75.9106 71.8131 79.3452V107.238H56.4831V55.8727H71.8131V62.6866C73.3661 60.4153 75.4587 58.6228 78.0907 57.3012C80.7189 55.9835 83.6785 55.3227 86.9657 55.3227C92.8233 55.3227 97.5017 57.2734 100.997 61.1671L101.001 61.1631Z" fill="#FEFFFC"/>
</svg>
